<?xml version="1.0" standalone="no"?>
<!DOCTYPE svg PUBLIC "-//W3C//DTD SVG 1.1//EN" "http://www.w3.org/Graphics/SVG/1.1/DTD/svg11.dtd">
<svg width="58" height="63" viewBox="0 -63 58 63" xmlns="http://www.w3.org/2000/svg" version="1.1">
<title>OpenSCAD Model</title>
<path d="
M 58,-63 L 0,-63 L 0,-0 L 58,-0 z
M 25.6873,-54.5 L 25.6873,-56.619 L 24.9833,-56.619 L 24.9833,-56.784 L 25.6873,-56.804 L 25.6873,-57.102
 L 25.9038,-57.8262 L 26.5583,-58.084 L 26.8754,-58.0551 L 27.2143,-57.943 L 27.1463,-57.77 L 26.8593,-57.8731
 L 26.5723,-57.899 L 26.0482,-57.6822 L 25.8923,-57.122 L 25.8923,-56.804 L 26.9763,-56.804 L 26.9763,-56.619
 L 25.8923,-56.619 L 25.8923,-54.5 z
M 34.8357,-54.5 L 34.8357,-58.02 L 35.0547,-58.02 L 35.0547,-57.023 L 35.0397,-56.405 L 35.4804,-56.7836
 L 35.9827,-56.932 L 36.6165,-56.6971 L 36.8237,-55.98 L 36.8237,-54.5 L 36.6047,-54.5 L 36.6047,-55.95
 L 36.4499,-56.5422 L 35.9487,-56.737 L 35.5036,-56.6052 L 35.0547,-56.202 L 35.0547,-54.5 z
M 9.93893,-54.5236 L 9.5497,-54.759 L 9.53969,-54.759 L 9.51569,-54.5 L 9.33569,-54.5 L 9.33569,-58.02
 L 9.55469,-58.02 L 9.55469,-57.023 L 9.53969,-56.518 L 9.96382,-56.818 L 10.4247,-56.932 L 11.1685,-56.6029
 L 11.4167,-55.718 L 11.0896,-54.7732 L 10.3327,-54.436 z
M 10.9431,-54.9292 L 11.1877,-55.718 L 11.004,-56.4501 L 10.3907,-56.742 L 9.99069,-56.6352 L 9.55469,-56.305
 L 9.55469,-54.978 L 9.96756,-54.7062 L 10.3227,-54.625 z
M 19.3377,-54.7555 L 19.0521,-55.678 L 19.3844,-56.5941 L 20.1511,-56.932 L 20.5599,-56.8445 L 20.9291,-56.598
 L 20.9141,-57.07 L 20.9141,-58.02 L 21.1331,-58.02 L 21.1331,-54.5 L 20.9481,-54.5 L 20.9241,-54.844
 L 20.9141,-54.844 L 20.5443,-54.5579 L 20.0831,-54.436 z
M 20.5183,-54.7392 L 20.9141,-55.062 L 20.9141,-56.389 L 20.5328,-56.6604 L 20.1651,-56.742 L 19.5389,-56.4357
 L 19.2811,-55.678 L 19.5016,-54.9149 L 20.1121,-54.625 z
M 38.7091,-57.4246 L 38.6423,-57.594 L 38.7091,-57.7639 L 38.8703,-57.828 L 39.0339,-57.7639 L 39.0993,-57.594
 L 39.0339,-57.4246 L 38.8703,-57.361 z
M 43.6524,-54.5707 L 43.1717,-54.917 L 43.3177,-55.073 L 43.7546,-54.7579 L 44.3047,-54.64 L 44.9227,-54.819
 L 45.1507,-55.283 L 44.9646,-55.7162 L 44.5227,-55.956 L 44.0367,-56.175 L 43.5782,-56.4414 L 43.3417,-56.974
 L 43.6206,-57.5426 L 44.3187,-57.764 L 44.8652,-57.6499 L 45.2617,-57.379 L 45.1307,-57.228 L 44.778,-57.4685
 L 44.3187,-57.559 L 43.7727,-57.4031 L 43.5657,-56.984 L 43.7724,-56.5759 L 44.1687,-56.365 L 44.6497,-56.151
 L 45.1557,-55.8486 L 45.3737,-55.298 L 45.0815,-54.6821 L 44.3047,-54.436 z
M 46.0834,-54.5 L 46.0834,-57.7 L 46.3074,-57.7 L 46.3074,-56.294 L 47.9114,-56.294 L 47.9114,-57.7
 L 48.1354,-57.7 L 48.1354,-54.5 L 47.9114,-54.5 L 47.9114,-56.1 L 46.3074,-56.1 L 46.3074,-54.5
 z
M 49.229,-54.5 L 49.229,-57.7 L 51.1,-57.7 L 51.1,-57.505 L 49.447,-57.505 L 49.447,-56.23
 L 50.838,-56.23 L 50.838,-56.036 L 49.447,-56.036 L 49.447,-54.5 z
M 52.6946,-54.5 L 52.6946,-57.505 L 51.5816,-57.505 L 51.5816,-57.7 L 54.0316,-57.7 L 54.0316,-57.505
 L 52.9186,-57.505 L 52.9186,-54.5 z
M 22.3131,-54.7642 L 21.9497,-55.676 L 22.3104,-56.5969 L 23.1167,-56.932 L 23.8777,-56.6382 L 24.1617,-55.827
 L 24.1604,-55.7391 L 24.1517,-55.652 L 22.1727,-55.652 L 22.4618,-54.911 L 23.1987,-54.62 L 23.6222,-54.6912
 L 23.9767,-54.878 L 24.0647,-54.709 L 23.6949,-54.5211 L 23.1797,-54.436 z
M 23.7245,-56.5139 L 23.1207,-56.747 L 22.4997,-56.5007 L 22.1727,-55.827 L 23.9527,-55.827 z
M 6.67331,-54.592 L 6.42406,-55.087 L 6.84456,-55.6937 L 8.21306,-55.99 L 8.06393,-56.5126 L 7.51805,-56.742
 L 7.01706,-56.6331 L 6.63306,-56.42 L 6.53606,-56.584 L 6.95319,-56.8079 L 7.54205,-56.932 L 8.21968,-56.6667
 L 8.42706,-56.019 L 8.42706,-54.5 L 8.24706,-54.5 L 8.22206,-54.849 L 8.21306,-54.849 L 7.75156,-54.5604
 L 7.23605,-54.436 z
M 7.7308,-54.73 L 8.21306,-55.053 L 8.21306,-55.818 L 6.98331,-55.5599 L 6.64305,-55.097 L 6.84006,-54.7299
 L 7.27406,-54.62 z
M 12.4568,-54.7607 L 12.0963,-55.678 L 12.4708,-56.605 L 13.3703,-56.932 L 13.8639,-56.823 L 14.2113,-56.573
 L 14.0853,-56.424 L 13.7629,-56.6539 L 13.3753,-56.742 L 12.6171,-56.4466 L 12.3253,-55.678 L 12.6127,-54.9167
 L 13.3703,-54.625 L 13.8044,-54.7219 L 14.1583,-54.968 L 14.2693,-54.814 L 13.8624,-54.5395 L 13.3603,-54.436
 z
M 31.5,-46.5 L 31.5,-53.5 L 32.3789,-53.5 L 32.1562,-53.5509 L 31.8851,-54.049 L 31.9872,-54.3391
 L 32.2791,-54.603 L 32.2791,-54.622 L 32.1137,-54.754 L 32.0361,-54.985 L 32.1077,-55.2097 L 32.3181,-55.421
 L 32.3181,-55.441 L 32.1224,-55.693 L 32.0401,-56.071 L 32.2967,-56.6901 L 32.9111,-56.932 L 33.0838,-56.9085
 L 33.2311,-56.804 L 34.2041,-56.804 L 34.2041,-56.624 L 33.4941,-56.624 L 33.6873,-56.3691 L 33.7711,-56.031
 L 33.5196,-55.451 L 32.9111,-55.225 L 32.6896,-55.2511 L 32.4681,-55.332 L 32.3031,-55.1886 L 32.2401,-55.016
 L 32.3877,-54.7794 L 32.7791,-54.704 L 33.3581,-54.704 L 34.0059,-54.581 L 34.2091,-54.173 L 33.8739,-53.6144
 L 33.4628,-53.5 L 40,-53.5 L 40,-46.5 z
M 33.3693,-55.5735 L 33.5621,-56.036 L 33.3693,-56.5025 L 32.9111,-56.687 L 32.4501,-56.5025 L 32.2591,-56.036
 L 32.4501,-55.5735 L 32.9111,-55.396 z
M 33.7128,-53.7326 L 33.9851,-54.148 L 33.8344,-54.4241 L 33.3771,-54.5 L 32.8231,-54.5 L 32.6418,-54.5087
 L 32.4681,-54.543 L 32.1728,-54.3014 L 32.0891,-54.044 L 32.3054,-53.6844 L 32.9591,-53.54 z
M 38.8173,-54.5 L 38.8173,-56.619 L 37.6453,-56.619 L 37.6453,-56.804 L 39.0313,-56.804 L 39.0313,-54.5
 z
M 18.75,-46.5 L 18.75,-53.5 L 27.25,-53.5 L 27.25,-46.5 z
M 44.25,-46.5 L 44.25,-53.5 L 52.75,-53.5 L 52.75,-46.5 z
M 6,-46.5 L 6,-53.5 L 14.5,-53.5 L 14.5,-46.5 z
M 13.1706,-42.1194 L 12.9913,-42.704 L 12.9913,-45.335 L 12.1263,-45.335 L 12.1263,-45.52 L 13.2053,-45.52
 L 13.2053,-42.675 L 13.3341,-42.2601 L 13.7103,-42.125 L 13.9392,-42.1556 L 14.1973,-42.253 L 14.2653,-42.081
 L 13.9879,-41.9796 L 13.6813,-41.936 z
M 9.42268,-42 L 9.42268,-45.52 L 9.64169,-45.52 L 9.64169,-42.916 L 9.6617,-42.916 L 11.1587,-44.304
 L 11.4257,-44.304 L 10.4687,-43.411 L 11.5817,-42 L 11.3337,-42 L 10.3177,-43.281 L 9.64169,-42.652
 L 9.64169,-42 z
M 50.4783,-41.226 L 52.0673,-45.456 L 52.2863,-45.456 L 50.6963,-41.226 z
M 7.51181,-44.9246 L 7.44505,-45.094 L 7.51181,-45.2639 L 7.67307,-45.328 L 7.83669,-45.2639 L 7.90205,-45.094
 L 7.83669,-44.9246 L 7.67307,-44.861 z
M 22.0857,-42 L 22.0857,-44.304 L 22.2707,-44.304 L 22.2947,-43.92 L 22.3137,-43.92 L 22.7334,-44.2855
 L 23.2327,-44.432 L 23.8665,-44.1971 L 24.0737,-43.48 L 24.0737,-42 L 23.8547,-42 L 23.8547,-43.45
 L 23.6999,-44.0422 L 23.1987,-44.237 L 22.7536,-44.1052 L 22.3047,-43.702 L 22.3047,-42 z
M 19.0911,-42 L 19.0911,-44.304 L 19.2661,-44.304 L 19.2901,-44.054 L 19.3001,-44.054 L 19.5218,-44.33
 L 19.8351,-44.432 L 20.1413,-44.3284 L 20.3021,-44.014 L 20.5559,-44.3231 L 20.8751,-44.432 L 21.2484,-44.2551
 L 21.3811,-43.722 L 21.3811,-42 L 21.1721,-42 L 21.1721,-43.697 L 21.0874,-44.1009 L 20.8311,-44.237
 L 20.5608,-44.1254 L 20.3311,-43.791 L 20.3311,-42 L 20.1361,-42 L 20.1361,-43.697 L 20.0522,-44.1009
 L 19.8011,-44.237 L 19.5269,-44.1254 L 19.3001,-43.791 L 19.3001,-42 z
M 31.5,-34 L 31.5,-41 L 31.9871,-41 L 31.9871,-44.304 L 32.1721,-44.304 L 32.1961,-44.033
 L 32.2061,-44.033 L 32.6152,-44.318 L 33.0761,-44.432 L 33.8199,-44.1029 L 34.0681,-43.218 L 33.7397,-42.2732
 L 32.9741,-41.936 L 32.5928,-42.023 L 32.2011,-42.269 L 32.2061,-41.795 L 32.2061,-41 L 36.5127,-41
 L 36.5127,-41.884 L 36.5277,-42.349 L 36.1411,-42.0566 L 35.6817,-41.936 L 34.9363,-42.2555 L 34.6507,-43.178
 L 34.9831,-44.0941 L 35.7497,-44.432 L 36.1573,-44.3451 L 36.5177,-44.103 L 36.5277,-44.103 L 36.5517,-44.304
 L 36.7317,-44.304 L 36.7317,-41 L 40,-41 L 40,-34 z
M 33.5932,-42.4292 L 33.8391,-43.218 L 33.6554,-43.9501 L 33.0421,-44.242 L 32.6421,-44.1352 L 32.2061,-43.805
 L 32.2061,-42.467 L 32.6177,-42.2037 L 32.9641,-42.125 z
M 36.1169,-42.2392 L 36.5127,-42.562 L 36.5127,-43.889 L 36.1314,-44.1604 L 35.7637,-44.242 L 35.1376,-43.9357
 L 34.8797,-43.178 L 35.1002,-42.4149 L 35.7107,-42.125 z
M 37.9663,-42 L 37.9663,-44.304 L 38.1513,-44.304 L 38.1753,-43.792 L 38.1853,-43.792 L 38.6541,-44.253
 L 39.2833,-44.432 L 39.5206,-44.4122 L 39.7503,-44.334 L 39.6923,-44.143 L 39.4764,-44.2075 L 39.2493,-44.227
 L 38.6918,-44.0585 L 38.1853,-43.485 L 38.1853,-42 z
M 25.0859,-42.2607 L 24.7493,-43.178 L 25.0859,-44.105 L 25.8823,-44.432 L 26.6783,-44.105 L 27.0153,-43.178
 L 26.6783,-42.2607 L 25.8823,-41.936 z
M 26.5312,-42.4167 L 26.7863,-43.178 L 26.5312,-43.9466 L 25.8823,-44.242 L 25.2334,-43.9466 L 24.9783,-43.178
 L 25.2334,-42.4167 L 25.8823,-42.125 z
M 6,-34 L 6,-41 L 6.4668,-41 L 6.28307,-41.067 L 6.37006,-41.235 L 6.63594,-41.1366
 L 6.93405,-41.096 L 7.48143,-41.292 L 7.62006,-41.803 L 7.62006,-44.119 L 6.44806,-44.119 L 6.44806,-44.304
 L 7.83406,-44.304 L 7.83406,-41.832 L 7.63768,-41.1605 L 7.17418,-41 L 14.5,-41 L 14.5,-34
 z
M 44.6881,-43.536 L 44.6881,-43.72 L 46.6811,-43.72 L 46.6811,-43.536 z
M 48.3311,-42.0189 L 48.2417,-42.251 L 48.3311,-42.4859 L 48.5337,-42.567 L 48.7363,-42.4859 L 48.8257,-42.251
 L 48.7363,-42.0189 L 48.5337,-41.936 z
M 18.75,-34 L 18.75,-41 L 27.25,-41 L 27.25,-34 z
M 44.25,-34 L 44.25,-41 L 52.75,-41 L 52.75,-34 z
M 39.3763,-28.778 L 38.7046,-28.9064 L 38.4813,-29.397 L 38.5253,-30.393 L 38.3891,-30.6589 L 37.8013,-30.78
 L 37.8013,-30.935 L 38.3891,-31.057 L 38.5253,-31.326 L 38.4813,-32.331 L 38.7046,-32.8265 L 39.3763,-32.956
 L 39.6283,-32.956 L 39.6283,-32.81 L 39.3473,-32.81 L 38.8081,-32.6907 L 38.6813,-32.312 L 38.7153,-31.374
 L 38.6287,-31.0361 L 38.3013,-30.867 L 38.3013,-30.848 L 38.6287,-30.6792 L 38.7153,-30.344 L 38.6813,-29.416
 L 38.8081,-29.0414 L 39.3473,-28.924 L 39.6283,-28.924 L 39.6283,-28.778 z
M 10.0958,-29.691 L 9.91869,-30.36 L 9.91869,-31.619 L 9.21368,-31.619 L 9.21368,-31.784 L 9.92369,-31.804
 L 9.9527,-32.479 L 10.1327,-32.479 L 10.1327,-31.804 L 11.3777,-31.804 L 11.3777,-31.619 L 10.1327,-31.619
 L 10.1327,-30.341 L 10.2627,-29.8154 L 10.7797,-29.625 L 11.1168,-29.6561 L 11.4067,-29.745 L 11.4647,-29.581
 L 11.1129,-29.4759 L 10.7507,-29.436 z
M 44.8241,-31.014 L 44.8241,-31.209 L 46.5991,-32.444 L 46.5991,-32.21 L 45.0331,-31.121 L 45.0331,-31.102
 L 46.5991,-30.013 L 46.5991,-29.779 z
M 6.87706,-29.5464 L 6.38007,-29.809 L 6.50206,-29.968 L 6.93369,-29.7137 L 7.53706,-29.62 L 8.08194,-29.7611
 L 8.26605,-30.092 L 8.10493,-30.3842 L 7.43005,-30.639 L 6.77368,-30.8986 L 6.51106,-31.3 L 6.73294,-31.7461
 L 7.42506,-31.932 L 7.90518,-31.8501 L 8.32005,-31.643 L 8.20306,-31.484 L 7.85356,-31.6751 L 7.42006,-31.747
 L 6.88255,-31.6146 L 6.73506,-31.315 L 6.94818,-31.0252 L 7.52206,-30.818 L 8.27982,-30.5196 L 8.49005,-30.102
 L 8.23843,-29.6347 L 7.52705,-29.436 z
M 20.0781,-29.5 L 19.0281,-31.804 L 19.2521,-31.804 L 19.8931,-30.36 L 20.0462,-30.0224 L 20.1851,-29.699
 L 20.2041,-29.699 L 20.4861,-30.36 L 21.1331,-31.804 L 21.3421,-31.804 L 20.3061,-29.5 z
M 24.8123,-29.5 L 25.7463,-30.695 L 24.8853,-31.804 L 25.1333,-31.804 L 25.5853,-31.218 L 25.7279,-31.0254
 L 25.8773,-30.829 L 25.8963,-30.829 L 26.0536,-31.0302 L 26.6403,-31.804 L 26.8783,-31.804 L 26.0083,-30.685
 L 26.9513,-29.5 L 26.7033,-29.5 L 26.2083,-30.123 L 26.0466,-30.3351 L 25.8773,-30.551 L 25.8583,-30.551
 L 25.6953,-30.3384 L 25.5323,-30.119 L 25.0513,-29.5 z
M 12.3014,-29.6666 L 12.0963,-30.366 L 12.0963,-31.804 L 12.3103,-31.804 L 12.3103,-30.395 L 12.4656,-29.8194
 L 12.9673,-29.63 L 13.4177,-29.7566 L 13.8613,-30.154 L 13.8613,-31.804 L 14.0753,-31.804 L 14.0753,-29.5
 L 13.8953,-29.5 L 13.8713,-29.943 L 13.8513,-29.943 L 13.4381,-29.5792 L 12.9333,-29.436 z
M 34.6757,-29.5 L 34.6757,-29.616 L 36.5027,-31.619 L 34.8697,-31.619 L 34.8697,-31.804 L 36.8287,-31.804
 L 36.8287,-31.692 L 35.0007,-29.689 L 36.8827,-29.689 L 36.8827,-29.5 z
M 22.2317,-29.5 L 21.6287,-31.804 L 21.8567,-31.804 L 22.3074,-30.0006 L 22.3727,-29.699 L 22.3917,-29.699
 L 22.5477,-30.306 L 22.9217,-31.747 L 23.1597,-31.747 L 23.5347,-30.312 L 23.6897,-29.699 L 23.7097,-29.699
 L 23.8547,-30.312 L 24.2247,-31.804 L 24.4387,-31.804 L 23.8457,-29.5 L 23.5687,-29.5 L 23.1987,-30.898
 L 23.123,-31.2211 L 23.0437,-31.548 L 23.0237,-31.548 L 22.9518,-31.2287 L 22.5087,-29.5 z
M 31.5,-21.5 L 31.5,-28.5 L 31.8145,-28.5 L 31.8611,-28.65 L 31.9657,-28.623 L 32.0891,-28.611
 L 32.5357,-28.7863 L 32.8181,-29.227 L 32.9011,-29.431 L 31.7681,-31.804 L 31.9921,-31.804 L 32.6721,-30.338
 L 32.8254,-30.0161 L 32.9931,-29.683 L 33.0131,-29.683 L 33.1524,-30.0142 L 33.2851,-30.338 L 33.8931,-31.804
 L 34.1021,-31.804 L 33.0031,-29.183 L 32.6767,-28.652 L 32.3013,-28.5 L 40,-28.5 L 40,-21.5
 z
M 47.5367,-31.036 L 47.5367,-31.22 L 49.5297,-31.22 L 49.5297,-31.036 z
M 50.3853,-31.036 L 50.3853,-31.22 L 52.3783,-31.22 L 52.3783,-31.036 z
M 18.75,-21.5 L 18.75,-28.5 L 27.25,-28.5 L 27.25,-21.5 z
M 6,-21.5 L 6,-28.5 L 14.5,-28.5 L 14.5,-21.5 z
M 44.25,-21.5 L 44.25,-28.5 L 52.75,-28.5 L 52.75,-21.5 z
M 24.9783,-16.226 L 26.5673,-20.456 L 26.7863,-20.456 L 25.1963,-16.226 z
M 13.5503,-18.856 L 13.4533,-19.915 L 13.4533,-20.348 L 13.8223,-20.348 L 13.8223,-19.915 L 13.7253,-18.856
 z
M 12.5393,-18.856 L 12.4423,-19.915 L 12.4423,-20.348 L 12.8113,-20.348 L 12.8113,-19.915 L 12.7143,-18.856
 z
M 10.2057,-18.063 L 10.1817,-19.917 L 10.1817,-20.264 L 10.3857,-20.264 L 10.3857,-19.917 L 10.3617,-18.063
 z
M 34.7727,-17 L 34.7727,-20.2 L 35.0057,-20.2 L 36.2547,-17.937 L 36.6007,-17.306 L 36.6097,-17.306
 L 36.5918,-17.7695 L 36.5807,-18.233 L 36.5807,-20.2 L 36.7947,-20.2 L 36.7947,-17 L 36.5617,-17
 L 35.3117,-19.262 L 34.9667,-19.893 L 34.9567,-19.893 L 34.9754,-19.437 L 34.9867,-18.981 L 34.9867,-17
 z
M 32.0941,-17 L 32.0941,-20.2 L 33.9901,-20.2 L 33.9901,-20.005 L 32.3181,-20.005 L 32.3181,-18.794
 L 33.7271,-18.794 L 33.7271,-18.6 L 32.3181,-18.6 L 32.3181,-17.194 L 34.0381,-17.194 L 34.0381,-17
 z
M 38.5203,-17 L 38.5203,-20.005 L 37.4073,-20.005 L 37.4073,-20.2 L 39.8573,-20.2 L 39.8573,-20.005
 L 38.7443,-20.005 L 38.7443,-17 z
M 19.3991,-17.3546 L 19.1201,-18.527 L 19.3991,-19.7204 L 20.1851,-20.136 L 20.9711,-19.7204 L 21.2501,-18.527
 L 20.9711,-17.3546 L 20.1851,-16.936 z
M 20.7999,-17.477 L 21.0361,-18.527 L 20.7999,-19.5945 L 20.1851,-19.951 L 19.5698,-19.5945 L 19.3341,-18.527
 L 19.5698,-17.477 L 20.1851,-17.12 z
M 20.0006,-18.3546 L 19.9181,-18.571 L 20.0006,-18.7882 L 20.1851,-18.863 L 20.3696,-18.7882 L 20.4521,-18.571
 L 20.3696,-18.3546 L 20.1851,-18.28 z
M 50.4683,-17.513 L 52.0333,-18.602 L 52.0333,-18.621 L 50.4683,-19.71 L 50.4683,-19.944 L 52.2423,-18.709
 L 52.2423,-18.514 L 50.4683,-17.279 z
M 47.5367,-18.536 L 47.5367,-18.72 L 49.5297,-18.72 L 49.5297,-18.536 z
M 44.6881,-18.536 L 44.6881,-18.72 L 46.6811,-18.72 L 46.6811,-18.536 z
M 22.8311,-17.0189 L 22.7417,-17.251 L 22.8311,-17.4859 L 23.0337,-17.567 L 23.2363,-17.4859 L 23.3257,-17.251
 L 23.2363,-17.0189 L 23.0337,-16.936 z
M 10.0879,-17.0164 L 10.0017,-17.243 L 10.0879,-17.4712 L 10.2837,-17.548 L 10.4794,-17.4697 L 10.5657,-17.243
 L 10.4794,-17.0164 L 10.2837,-16.936 z
M 6.26805,-16.392 L 6.26805,-16.616 L 8.60205,-16.616 L 8.60205,-16.392 z
M 6,-9 L 6,-16 L 14.5,-16 L 14.5,-9 z
M 31.5,-9 L 31.5,-16 L 40,-16 L 40,-9 z
M 18.75,-9 L 18.75,-16 L 27.25,-16 L 27.25,-9 z
M 44.25,-9 L 44.25,-16 L 52.75,-16 L 52.75,-9 z
" stroke="black" fill="lightgray" stroke-width="0.5"/></svg>
